<svg xmlns="http://www.w3.org/2000/svg" viewBox="0 0 64 64">
  <rect x="4" y="4" width="56" height="56" rx="14" fill="#22c55e" />
  <g transform="translate(8 8) scale(2)" fill="none" stroke="#0b1220" stroke-width="1.8" stroke-linecap="round" stroke-linejoin="round">
    <path d="m16 2-2.3 2.3a3 3 0 0 0 0 4.2l1.8 1.8a3 3 0 0 0 4.2 0L22 8" />
    <path d="M15 15 3.3 3.3a4.2 4.2 0 0 0 0 6l7.3 7.3c.7.7 2 .7 2.8 0L15 15Zm0 0 7 7" />
    <path d="m2.1 21.8 6.4-6.3" />
    <path d="m19 5-7 7" />
  </g>
</svg>
